<svg width="51" height="44" viewBox="0 0 51 44" fill="none" xmlns="http://www.w3.org/2000/svg">
<path d="M1.76169 26.202H5.91583V42.2776C5.91583 43.2249 6.71698 44 7.69616 44H19.8618C20.841 44 21.6421 43.2249 21.6421 42.2776V30.5079H29.0601V42.2776C29.0601 43.2249 29.8613 44 30.8405 44H42.4126C43.3918 44 44.193 43.2249 44.193 42.2776V26.202H49.2373C49.9494 26.202 50.6022 25.7714 50.8692 25.1399C51.1363 24.5084 50.9879 23.762 50.4835 23.2739L27.2798 0.509781C26.5973 -0.150501 25.4698 -0.179173 24.7873 0.481108L0.545196 23.2453C0.0110963 23.7333 -0.1373 24.4796 0.12975 25.1399C0.3968 25.8001 1.04955 26.202 1.76169 26.202ZM25.9742 4.15546L44.9644 22.7572H42.4125C41.4333 22.7572 40.6322 23.5323 40.6322 24.4796V40.5552H32.6207V28.7856C32.6207 27.8383 31.8196 27.0632 30.8404 27.0632H19.8618C18.8826 27.0632 18.0815 27.8383 18.0815 28.7856V40.5552H9.47649V24.4796C9.47649 23.5323 8.67534 22.7572 7.69616 22.7572H6.15324L25.9742 4.15546Z" fill="#F8F8F8"/>
</svg>
