<svg width="31" height="27" viewBox="0 0 31 27" fill="none" xmlns="http://www.w3.org/2000/svg">
<path d="M1.07083 16.0785H3.5959V25.9431C3.5959 26.5244 4.08287 27 4.67806 27H12.0729C12.668 27 13.155 26.5244 13.155 25.9431V18.7208H17.664V25.9431C17.664 26.5244 18.151 27 18.7462 27H25.7802C26.3754 27 26.8624 26.5244 26.8624 25.9431V16.0785H29.9285C30.3614 16.0785 30.7582 15.8143 30.9205 15.4267C31.0828 15.0392 30.9926 14.5812 30.6861 14.2817L16.5818 0.31282C16.167 -0.0923526 15.4817 -0.109947 15.0668 0.295225L0.331394 14.2641C0.00674484 14.5636 -0.0834566 15.0216 0.0788678 15.4267C0.241192 15.8319 0.637964 16.0785 1.07083 16.0785ZM15.7882 2.54994L27.3313 13.9647H25.7802C25.185 13.9647 24.698 14.4403 24.698 15.0216V24.8862H19.8283V17.6639C19.8283 17.0826 19.3413 16.607 18.7461 16.607H12.0729C11.4777 16.607 10.9907 17.0826 10.9907 17.6639V24.8862H5.76022V15.0216C5.76022 14.4403 5.27325 13.9647 4.67806 13.9647H3.74021L15.7882 2.54994Z" fill="#F8F8F8"/>
</svg>
