<svg width="22" height="22" viewBox="0 0 22 22" fill="none" xmlns="http://www.w3.org/2000/svg" xmlns:xlink="http://www.w3.org/1999/xlink">
<path d="M20.3077 20.3077H3.10256C2.63549 20.3077 2.25641 20.6868 2.25641 21.1538C2.25641 21.6209 2.63549 22 3.10256 22H20.8718C21.4697 22 22 21.4697 22 20.8718V3.10256C22 2.63549 21.6209 2.25641 21.1538 2.25641C20.6868 2.25641 20.3077 2.63549 20.3077 3.10256V20.3077ZM19.1795 1.12821C19.1795 0.588923 18.7519 0 18.0513 0H1.12821C0.428718 0 0 0.585539 0 1.12821V18.0513C0 18.7519 0.586667 19.1795 1.12821 19.1795H18.0513C18.5906 19.1795 19.1795 18.7519 19.1795 18.0513V1.12821ZM1.69231 1.69231H17.4872V17.4872H1.69231V1.69231ZM8.74359 8.74359H5.35897C4.8919 8.74359 4.51282 9.12267 4.51282 9.58974C4.51282 10.0568 4.8919 10.4359 5.35897 10.4359H8.74359V13.8205C8.74359 14.2876 9.12267 14.6667 9.58974 14.6667C10.0568 14.6667 10.4359 14.2876 10.4359 13.8205V10.4359H13.8205C14.2876 10.4359 14.6667 10.0568 14.6667 9.58974C14.6667 9.12267 14.2876 8.74359 13.8205 8.74359H10.4359V5.35897C10.4359 4.8919 10.0568 4.51282 9.58974 4.51282C9.12267 4.51282 8.74359 4.8919 8.74359 5.35897V8.74359Z" fill="url(#pattern0)"/>
<path d="M20.3077 20.3077H3.10256C2.63549 20.3077 2.25641 20.6868 2.25641 21.1538C2.25641 21.6209 2.63549 22 3.10256 22H20.8718C21.4697 22 22 21.4697 22 20.8718V3.10256C22 2.63549 21.6209 2.25641 21.1538 2.25641C20.6868 2.25641 20.3077 2.63549 20.3077 3.10256V20.3077ZM19.1795 1.12821C19.1795 0.588923 18.7519 0 18.0513 0H1.12821C0.428718 0 0 0.585539 0 1.12821V18.0513C0 18.7519 0.586667 19.1795 1.12821 19.1795H18.0513C18.5906 19.1795 19.1795 18.7519 19.1795 18.0513V1.12821ZM1.69231 1.69231H17.4872V17.4872H1.69231V1.69231ZM8.74359 8.74359H5.35897C4.8919 8.74359 4.51282 9.12267 4.51282 9.58974C4.51282 10.0568 4.8919 10.4359 5.35897 10.4359H8.74359V13.8205C8.74359 14.2876 9.12267 14.6667 9.58974 14.6667C10.0568 14.6667 10.4359 14.2876 10.4359 13.8205V10.4359H13.8205C14.2876 10.4359 14.6667 10.0568 14.6667 9.58974C14.6667 9.12267 14.2876 8.74359 13.8205 8.74359H10.4359V5.35897C10.4359 4.8919 10.0568 4.51282 9.58974 4.51282C9.12267 4.51282 8.74359 4.8919 8.74359 5.35897V8.74359Z" fill="#151F44"/>
<defs>
<pattern id="pattern0" patternContentUnits="objectBoundingBox" width="1" height="1">
<use xlink:href="#image0_49_422" transform="scale(0.000625)"/>
</pattern>
</defs>
</svg>
