<svg width="34" height="34" viewBox="0 0 34 34" fill="none" xmlns="http://www.w3.org/2000/svg" xmlns:xlink="http://www.w3.org/1999/xlink">
<g opacity="0.75">
<path d="M2.41761 20.6649L4.00002 21.3935C4.65936 21.7026 4.96708 22.4532 4.7253 23.1376L4.10994 24.7714C3.6484 26.0299 3.80222 27.3766 4.57148 28.4584C5.3187 29.5624 6.5495 30.2026 7.86818 30.2026C8.35167 30.2026 8.83523 30.1143 9.29677 29.9376L10.9232 29.3195C11.077 29.2532 11.2309 29.2312 11.4067 29.2312C11.9341 29.2312 12.4397 29.5403 12.6594 30.048L13.3847 31.6376C14.044 33.0948 15.4506 34 17.033 34C18.6154 34 20.022 33.0948 20.6813 31.6376L21.4066 30.048C21.6264 29.5624 22.1099 29.2312 22.6593 29.2312C22.8132 29.2312 22.989 29.2532 23.1428 29.3195L24.7692 29.9598C25.2308 30.1364 25.7143 30.2467 26.1978 30.2467C27.4946 30.2467 28.7253 29.5624 29.4945 28.4805C30.2418 27.3766 30.4176 26.0299 29.9561 24.7714L29.3407 23.1376C29.0989 22.4532 29.4066 21.7025 30.066 21.3935L31.6484 20.6649C33.099 20.0026 34.0001 18.5896 34.0001 17C34.0001 15.4104 33.0989 13.9974 31.6483 13.3351L30.0659 12.6065C29.4066 12.2974 29.0989 11.5468 29.3406 10.8624L29.956 9.22859C30.4175 7.97015 30.2637 6.62343 29.4945 5.54156C28.7472 4.43765 27.5164 3.79744 26.1978 3.79744C25.7143 3.79744 25.2307 3.88573 24.7692 4.06237L23.1428 4.68053C22.9889 4.74676 22.835 4.76881 22.6593 4.76881C22.1318 4.76881 21.6263 4.4597 21.4065 3.95196L20.6812 2.36235C20.0219 0.905217 18.6153 0 17.0329 0C15.4505 0 13.978 0.927269 13.3187 2.38441L12.5934 3.97401C12.3736 4.4597 11.8901 4.79086 11.3406 4.79086C11.1868 4.79086 11.011 4.76881 10.8572 4.70258L9.23076 4.08443C8.76922 3.90778 8.28573 3.81949 7.80217 3.81949C6.50544 3.81949 5.27472 4.48183 4.50546 5.56362C3.75824 6.66753 3.58239 8.01426 4.04393 9.25064L4.65929 10.8844C4.90107 11.5688 4.59335 12.3195 3.93401 12.6286L2.35159 13.3571C0.901124 14.0195 0 15.4325 0 17.0221C0 18.6117 0.967058 20.0026 2.41761 20.6649ZM3.4945 15.7415L5.07692 15.013C6.989 14.1299 7.91208 11.9 7.16485 9.93503L6.5495 8.30124C6.32974 7.70514 6.5495 7.26356 6.70332 7.0428C7.05494 6.51294 7.71428 6.29218 8.32972 6.53499L9.95611 7.15314C10.4177 7.32979 10.8792 7.41808 11.3627 7.41808C12.9231 7.41808 14.3517 6.49081 15.011 5.05572L15.7363 3.46612C16.0659 2.7155 16.7693 2.64926 16.989 2.64926C17.2088 2.64926 17.8901 2.7155 18.2418 3.46612L18.967 5.05572C19.6264 6.49081 21.055 7.41808 22.6154 7.41808C23.0989 7.41808 23.5604 7.32979 24.0219 7.15314L25.6483 6.53499C26.2637 6.31424 26.9011 6.53499 27.2747 7.0428C27.4285 7.26356 27.6484 7.70514 27.4285 8.30124L26.8132 9.93503C26.0879 11.9 26.989 14.1298 28.9011 15.013L30.4835 15.7415C31.2308 16.0727 31.2967 16.7792 31.2967 17C31.2967 17.2207 31.2308 17.9052 30.4835 18.2584L28.9011 18.987C26.989 19.8701 26.066 22.0999 26.8132 24.0649L27.4285 25.6987C27.6483 26.2948 27.4285 26.7364 27.2747 26.9571C26.9231 27.487 26.2638 27.7077 25.6483 27.4649L24.0219 26.8468C23.5604 26.6701 23.0989 26.5818 22.6154 26.5818C21.0549 26.5818 19.6264 27.5091 18.967 28.9442L18.2418 30.5338C17.9121 31.2844 17.2088 31.3507 16.989 31.3507C16.7693 31.3507 16.0879 31.2844 15.7363 30.5338L15.011 28.9442C14.3517 27.5091 12.9231 26.5818 11.3627 26.5818C10.8792 26.5818 10.4177 26.6701 9.95611 26.8468L8.32972 27.4649C7.71436 27.6857 7.07697 27.4649 6.70332 26.9571C6.5495 26.7364 6.32966 26.2948 6.5495 25.6987L7.16485 24.0649C7.89013 22.0999 6.989 19.8701 5.07692 18.987L3.4945 18.2584C2.74728 17.9272 2.68134 17.2207 2.68134 17C2.68134 16.7792 2.74728 16.0948 3.4945 15.7415Z" fill="url(#pattern0)"/>
<path d="M2.41761 20.6649L4.00002 21.3935C4.65936 21.7026 4.96708 22.4532 4.7253 23.1376L4.10994 24.7714C3.6484 26.0299 3.80222 27.3766 4.57148 28.4584C5.3187 29.5624 6.5495 30.2026 7.86818 30.2026C8.35167 30.2026 8.83523 30.1143 9.29677 29.9376L10.9232 29.3195C11.077 29.2532 11.2309 29.2312 11.4067 29.2312C11.9341 29.2312 12.4397 29.5403 12.6594 30.048L13.3847 31.6376C14.044 33.0948 15.4506 34 17.033 34C18.6154 34 20.022 33.0948 20.6813 31.6376L21.4066 30.048C21.6264 29.5624 22.1099 29.2312 22.6593 29.2312C22.8132 29.2312 22.989 29.2532 23.1428 29.3195L24.7692 29.9598C25.2308 30.1364 25.7143 30.2467 26.1978 30.2467C27.4946 30.2467 28.7253 29.5624 29.4945 28.4805C30.2418 27.3766 30.4176 26.0299 29.9561 24.7714L29.3407 23.1376C29.0989 22.4532 29.4066 21.7025 30.066 21.3935L31.6484 20.6649C33.099 20.0026 34.0001 18.5896 34.0001 17C34.0001 15.4104 33.0989 13.9974 31.6483 13.3351L30.0659 12.6065C29.4066 12.2974 29.0989 11.5468 29.3406 10.8624L29.956 9.22859C30.4175 7.97015 30.2637 6.62343 29.4945 5.54156C28.7472 4.43765 27.5164 3.79744 26.1978 3.79744C25.7143 3.79744 25.2307 3.88573 24.7692 4.06237L23.1428 4.68053C22.9889 4.74676 22.835 4.76881 22.6593 4.76881C22.1318 4.76881 21.6263 4.4597 21.4065 3.95196L20.6812 2.36235C20.0219 0.905217 18.6153 0 17.0329 0C15.4505 0 13.978 0.927269 13.3187 2.38441L12.5934 3.97401C12.3736 4.4597 11.8901 4.79086 11.3406 4.79086C11.1868 4.79086 11.011 4.76881 10.8572 4.70258L9.23076 4.08443C8.76922 3.90778 8.28573 3.81949 7.80217 3.81949C6.50544 3.81949 5.27472 4.48183 4.50546 5.56362C3.75824 6.66753 3.58239 8.01426 4.04393 9.25064L4.65929 10.8844C4.90107 11.5688 4.59335 12.3195 3.93401 12.6286L2.35159 13.3571C0.901124 14.0195 0 15.4325 0 17.0221C0 18.6117 0.967058 20.0026 2.41761 20.6649ZM3.4945 15.7415L5.07692 15.013C6.989 14.1299 7.91208 11.9 7.16485 9.93503L6.5495 8.30124C6.32974 7.70514 6.5495 7.26356 6.70332 7.0428C7.05494 6.51294 7.71428 6.29218 8.32972 6.53499L9.95611 7.15314C10.4177 7.32979 10.8792 7.41808 11.3627 7.41808C12.9231 7.41808 14.3517 6.49081 15.011 5.05572L15.7363 3.46612C16.0659 2.7155 16.7693 2.64926 16.989 2.64926C17.2088 2.64926 17.8901 2.7155 18.2418 3.46612L18.967 5.05572C19.6264 6.49081 21.055 7.41808 22.6154 7.41808C23.0989 7.41808 23.5604 7.32979 24.0219 7.15314L25.6483 6.53499C26.2637 6.31424 26.9011 6.53499 27.2747 7.0428C27.4285 7.26356 27.6484 7.70514 27.4285 8.30124L26.8132 9.93503C26.0879 11.9 26.989 14.1298 28.9011 15.013L30.4835 15.7415C31.2308 16.0727 31.2967 16.7792 31.2967 17C31.2967 17.2207 31.2308 17.9052 30.4835 18.2584L28.9011 18.987C26.989 19.8701 26.066 22.0999 26.8132 24.0649L27.4285 25.6987C27.6483 26.2948 27.4285 26.7364 27.2747 26.9571C26.9231 27.487 26.2638 27.7077 25.6483 27.4649L24.0219 26.8468C23.5604 26.6701 23.0989 26.5818 22.6154 26.5818C21.0549 26.5818 19.6264 27.5091 18.967 28.9442L18.2418 30.5338C17.9121 31.2844 17.2088 31.3507 16.989 31.3507C16.7693 31.3507 16.0879 31.2844 15.7363 30.5338L15.011 28.9442C14.3517 27.5091 12.9231 26.5818 11.3627 26.5818C10.8792 26.5818 10.4177 26.6701 9.95611 26.8468L8.32972 27.4649C7.71436 27.6857 7.07697 27.4649 6.70332 26.9571C6.5495 26.7364 6.32966 26.2948 6.5495 25.6987L7.16485 24.0649C7.89013 22.0999 6.989 19.8701 5.07692 18.987L3.4945 18.2584C2.74728 17.9272 2.68134 17.2207 2.68134 17C2.68134 16.7792 2.74728 16.0948 3.4945 15.7415Z" fill="#151F44"/>
<path d="M16.967 22.7402C20.1099 22.7402 22.6813 20.1571 22.6813 17C22.6813 13.8428 20.1099 11.2597 16.967 11.2597C13.8241 11.2597 11.2527 13.8428 11.2527 17C11.2527 20.1571 13.8022 22.7402 16.967 22.7402ZM16.967 13.9091C18.6593 13.9091 20.0439 15.3 20.0439 17C20.0439 18.7001 18.6593 20.091 16.967 20.091C15.2747 20.091 13.89 18.7001 13.89 17C13.89 15.3 15.2747 13.9091 16.967 13.9091Z" fill="url(#pattern1)"/>
<path d="M16.967 22.7402C20.1099 22.7402 22.6813 20.1571 22.6813 17C22.6813 13.8428 20.1099 11.2597 16.967 11.2597C13.8241 11.2597 11.2527 13.8428 11.2527 17C11.2527 20.1571 13.8022 22.7402 16.967 22.7402ZM16.967 13.9091C18.6593 13.9091 20.0439 15.3 20.0439 17C20.0439 18.7001 18.6593 20.091 16.967 20.091C15.2747 20.091 13.89 18.7001 13.89 17C13.89 15.3 15.2747 13.9091 16.967 13.9091Z" fill="#151F44"/>
</g>
<defs>
<pattern id="pattern0" patternContentUnits="objectBoundingBox" width="1" height="1">
<use xlink:href="#image0_55_43" transform="scale(0.000625)"/>
</pattern>
<pattern id="pattern1" patternContentUnits="objectBoundingBox" width="1" height="1">
<use xlink:href="#image0_55_43" transform="translate(-0.00227124) scale(0.000627839 0.000625)"/>
</pattern>
</defs>
</svg>
